# AST/ASF file generated using VICON BodyLanguage
# -----------------------------------------------
:version 1.10
:name VICON
:units
  mass 1.0
  length 0.45
  angle deg
:documentation
   .ast/.asf automatically generated from VICON data using
   VICON BodyBuilder and BodyLanguage model FoxedUp or BRILLIANT.MOD
:root
   order TX TY TZ RX RY RZ
   axis XYZ
   position 0 0 0  
   orientation 0 0 0 
:bonedata
  begin
     id 1 
     name lhipjoint
     direction 0.722297 -0.617336 0.311742 
     length 2.6635 
     axis 0 0 0  XYZ
  end
  begin
     id 2 
     name lfemur
     direction 0.34202 -0.939693 0  
     length 7.39349  
     axis 0 0 20  XYZ
    dof rx ry rz
    limits (-160.0 20.0)
           (-70.0 70.0)
           (-60.0 70.0)
  end
  begin
     id 3 
     name ltibia
     direction 0.34202 -0.939693 0   
     length 7.36294   
     axis 0 0 20   XYZ
    dof rx
    limits (-10.0 170.0)
  end
  begin
     id 4 
     name lfoot
     direction 0.104879 -0.288152 0.951824   
     length 2.16981   
     axis -90 7.62852e-016 20   XYZ
    dof rx rz
    limits (-45.0 90.0)
           (-70.0 20.0)
  end
  begin
     id 5 
     name ltoes
     direction 1.53586e-011 -4.21895e-011 1   
     length 1.08218   
     axis -90 7.62852e-016 20   XYZ
    dof rx
    limits (-90.0 20.0)
  end
  begin
     id 6 
     name rhipjoint
     direction -0.75102 -0.589393 0.297631   
     length 2.78977  
     axis 0 0 0  XYZ 
  end
  begin
     id 7 
     name rfemur
     direction -0.34202 -0.939693 0   
     length 7.46076   
     axis 0 0 -20   XYZ
    dof rx ry rz
    limits (-160.0 20.0)
           (-70.0 70.0)
           (-70.0 60.0)
  end
  begin
     id 8 
     name rtibia
     direction -0.34202 -0.939693 0   
     length 7.31726   
     axis 0 0 -20   XYZ
    dof rx
    limits (-10.0 170.0)
 end
 begin
     id 9 
     name rfoot
     direction -0.107991 -0.296704 0.948844   
     length 2.09388  
     axis -90 -7.62852e-016 -20   XYZ
    dof rx rz
    limits (-45.0 90.0)
           (-20.0 70.0)
  end
  begin
     id 10 
     name rtoes
     direction -1.53559e-011 -4.21911e-011 1   
     length 1.04433   
     axis -90 -7.62852e-016 -20   XYZ
    dof rx
    limits (-90.0 20.0)
  end
  begin
     id 11 
     name lowerback
     direction 0.0165164 0.98272 0.184358   
     length 1.71896   
     axis 0 0 0   XYZ
    dof rx ry rz
    limits (-20.0 45.0)
           (-30.0 30.0)
           (-30.0 30.0)
  end
  begin
     id 12 
     name upperback
     direction -0.00887249 0.992297 0.123566   
     length 1.71504   
     axis 0 0 0   XYZ
    dof rx ry rz
    limits (-20.0 45.0)
           (-30.0 30.0)
           (-30.0 30.0)
  end
  begin
     id 13 
     name thorax
     direction -0.0157026 0.998908 0.0440032   
     length 1.77022   
     axis 0 0 0   XYZ
    dof rx ry rz
    limits (-20.0 45.0)
           (-30.0 30.0)
           (-30.0 30.0)
  end
  begin
     id 14 
     name lowerneck
     direction -0.0238856 0.998137 0.0561411   
     length 1.89341   
     axis 0 0 0   XYZ
    dof rx ry rz
    limits (-20.0 45.0)
           (-30.0 30.0)
           (-30.0 30.0)
  end
  begin
     id 15 
     name upperneck
     direction 0.0276574 0.952253 -0.304056   
     length 1.86999   
     axis 0 0 0   XYZ
    dof rx ry rz
    limits (-20.0 45.0)
           (-30.0 30.0)
           (-30.0 30.0)
  end
  begin
     id 16
     name head
     direction 0.00800083 0.994258 -0.106712  
     length 1.91492  
     axis 0 0 0   XYZ
    dof rx ry rz
    limits (-20.0 45.0)
           (-30.0 30.0)
           (-30.0 30.0)
  end
  begin
     id 17 
     name lclavicle
     direction 0.97203 0.225407 0.06595  
     length 3.34889  
     axis 0 0 0   XYZ
    dof ry rz
    limits (-20.0 10.0)
           (0.0 20.0)
  end
  begin
     id 18 
     name lhumerus
     direction 1 -4.48973e-011 2.20267e-027   
     length 4.85645   
     axis 180 -30 -90   XYZ
    dof rx ry rz
    limits (-60.0 90.0)
           (-90.0 90.0)
           (-90.0 90.0)
  end
  begin
     id 19
     name lradius
     direction 1 -4.4897e-011 4.60472e-027   
     length 2.79874   
     axis 180 -30 -90   XYZ
    dof rx
    limits (-10.0 170.0)
  end
  begin
     id 20
     name lwrist
     direction 1 -4.48952e-011 1.14928e-026   
     length 1.39937   
     axis -6.29373e-015 90 90   XYZ
    dof ry
    limits (-180.0 0.0)
 end
  begin
     id 21 
     name lhand
     direction 1 -4.48967e-011 2.29886e-026   
     length 0.573398   
     axis -1.46689e-014 90 90   XYZ
    dof rx rz
    limits (-90.0 90.0)
           (-45.0 45.0)
  end
  begin
     id 22 
     name lfingers
     direction 1 -4.48955e-011 4.59726e-026   
     length 0.462289   
     axis -2.93383e-014 90 90   XYZ
    dof rx
    limits (0.0 90.0)
  end
  begin
     id 23
     name lthumb
     direction 0.707107 -6.34866e-011 0.707107   
     length 0.663757   
     axis -90 45 5.69224e-014   XYZ
    dof rx rz
    limits (-45.0 45.0)
           (-45.0 45.0)
  end
  begin
     id 24 
     name rclavicle
     direction -0.981571 0.157346 0.108443   
     length 3.35257  
     axis 0 0 0   XYZ 
    dof ry rz
    limits (-10.0 20.0)
           (-20.0 0.0)
  end
  begin
     id 25 
     name rhumerus
     direction -1 -4.48967e-011 8.58308e-029  
     length 4.67018   
     axis 180 30 90   XYZ
    dof rx ry rz
    limits (-90.0 60.0)
           (-90.0 90.0)
           (-90.0 90.0)
  end
  begin
     id 26 
     name rradius
     direction -1 -4.48958e-011 4.52548e-027   
     length 2.65534   
     axis 180 30 90   XYZ
    dof rx
    limits (-10.0 170.0)
  end
  begin
     id 27 
     name rwrist
     direction -1 -4.48977e-011 1.14952e-026   
     length 1.32767   
     axis -6.29373e-015 -90 -90   XYZ
    dof ry
    limits (-180.0 0.0)
  end
  begin
     id 28
     name rhand
     direction -1 -4.48924e-011 2.29804e-026   
     length 0.594069   
     axis -1.46689e-014 -90 -90   XYZ
    dof rx rz
    limits (-90.0 90.0)
           (-45.0 45.0)
  end
  begin
     id 29
     name rfingers
     direction -1 -4.48998e-011 4.59888e-026   
     length 0.478954   
     axis -2.93383e-014 -90 -90   XYZ
    dof rx
    limits (0.0 90.0)
  end
  begin
     id 30
     name rthumb
     direction -0.707107 -6.34933e-011 0.707107   
     length 0.687685   
     axis -90 -45 -5.69224e-014   XYZ
    dof rx rz
    limits (-45.0 45.0)
           (-45.0 45.0)
  end
:hierarchy
  begin
    root lhipjoint rhipjoint lowerback
    lhipjoint lfemur
    lfemur ltibia
    ltibia lfoot
    lfoot ltoes
    rhipjoint rfemur
    rfemur rtibia
    rtibia rfoot
    rfoot rtoes
    lowerback upperback
    upperback thorax
    thorax lowerneck lclavicle rclavicle
    lowerneck upperneck
    upperneck head
    lclavicle lhumerus
    lhumerus lradius
    lradius lwrist
    lwrist lhand lthumb
    lhand lfingers
    rclavicle rhumerus
    rhumerus rradius
    rradius rwrist
    rwrist rhand rthumb
    rhand rfingers
  end

#!OML:ASF E:\pregnant2\Project 1\Capture day 1\Session 1\pregnant2.ASF
:FULLY-SPECIFIED
:DEGREES
1762
root 3.29789 16.9122 0.454385 -147.055 2.59244 536.274
lowerback -19.0192 -3.68022 -2.93172
upperback -14.6152 -1.04619 1.21398
thorax -5.10063 1.26922 2.66061
lowerneck -11.3143 -7.23755 -3.13208
upperneck 48.4208 1.68697 -5.42433
head 22.1441 2.27528 -0.805652
rclavicle 1.59028e-015 0
rhumerus -48.0681 -12.6016 -64.1935
rradius 26.8836
rwrist 15.4929
rhand -6.96289 -12.7844
rfingers 7.12502
rthumb 18.9065 -41.8855
lclavicle 1.59028e-015 0
lhumerus -37.9655 7.78148 78.5478
lradius 37.0412
lwrist 2.13554
lhand -11.6331 28.1318
lfingers 7.12502
lthumb 14.4106 57.6116
rfemur -66.7426 0.994489 20.392
rtibia 56.923
rfoot -11.6798 -9.68043
rtoes -7.43744
lfemur -47.1372 -5.60825 -27.0792
ltibia 37.8237
lfoot -20.2404 7.3039
ltoes -17.7611
1763
root 3.29939 16.9198 0.329223 -147.023 2.67322 536.246
lowerback -19.0777 -3.67944 -2.94571
upperback -14.6193 -1.03693 1.20981
thorax -5.07605 1.27636 2.66524
lowerneck -11.3447 -7.23081 -3.08822
upperneck 48.4332 1.67795 -5.41771
head 22.164 2.27978 -0.813192
rclavicle -5.26779e-015 -1.19271e-015
rhumerus -48.244 -12.5259 -64.0321
rradius 26.9752
rwrist 15.3686
rhand -6.97891 -12.7404
rfingers 7.12502
rthumb 18.8911 -41.8431
lclavicle -5.26779e-015 -1.19271e-015
lhumerus -37.6904 7.56042 78.6962
lradius 37.2287
lwrist 2.13288
lhand -11.7358 28.076
lfingers 7.12502
lthumb 14.3116 57.5627
rfemur -66.8036 1.42168 19.8825
rtibia 54.406
rfoot -11.8254 -10.3399
rtoes -7.00384
lfemur -46.5097 -5.53489 -27.196
ltibia 37.4874
lfoot -20.4106 7.37388
ltoes -17.9986
1764
root 3.30214 16.9299 0.203397 -146.987 2.74389 536.211
lowerback -19.1366 -3.68537 -2.96794
upperback -14.6283 -1.03325 1.20486
thorax -5.0563 1.28243 2.6727
lowerneck -11.3835 -7.22391 -3.04434
upperneck 48.4538 1.67064 -5.4047
head 22.1946 2.28656 -0.816741
rclavicle 9.44227e-016 -3.18055e-015
rhumerus -48.4228 -12.4313 -63.8837
rradius 27.0895
rwrist 15.2544
rhand -6.98955 -12.7337
rfingers 7.12502
rthumb 18.8809 -41.8373
lclavicle 9.44227e-016 -3.18055e-015
lhumerus -37.4319 7.34627 78.8291
lradius 37.3971
lwrist 2.12971
lhand -11.8085 28.0429
lfingers 7.12502
lthumb 14.2416 57.5347
rfemur -66.7973 1.86543 19.3014
rtibia 51.7548
rfoot -11.9286 -11.0307
rtoes -6.4956
lfemur -45.8426 -5.45249 -27.3184
ltibia 37.0601
lfoot -20.5163 7.40813
ltoes -18.2823
1765
root 3.30596 16.9422 0.0772203 -146.955 2.79616 536.172
lowerback -19.1906 -3.69592 -2.988
upperback -14.637 -1.03632 1.19947
thorax -5.03829 1.28487 2.67749
lowerneck -11.4346 -7.20843 -2.99262
upperneck 48.4702 1.67041 -5.38875
head 22.226 2.29685 -0.818993
rclavicle 4.32357e-015 -4.37326e-015
rhumerus -48.5688 -12.4053 -63.6887
rradius 27.1432
rwrist 15.2431
rhand -7.00583 -12.7168
rfingers 7.12502
rthumb 18.8652 -41.822
lclavicle 4.32357e-015 -4.37326e-015
lhumerus -37.1841 7.13249 78.9476
lradius 37.5638
lwrist 2.14393
lhand -11.7925 28.0913
lfingers 7.12502
lthumb 14.257 57.582
rfemur -66.7242 2.31463 18.6611
rtibia 48.9919
rfoot -11.9868 -11.7308
rtoes -5.95366
lfemur -45.1313 -5.37418 -27.4342
ltibia 36.5465
lfoot -20.5646 7.41834
ltoes -18.602
1766
root 3.31076 16.9565 -0.049297 -146.928 2.82435 536.132
lowerback -19.2387 -3.71125 -3.00077
upperback -14.6505 -1.0452 1.19214
thorax -5.02845 1.28469 2.67507
lowerneck -11.4829 -7.19324 -2.93935
upperneck 48.491 1.67097 -5.36917
head 22.2603 2.30942 -0.818998
rclavicle 1.88845e-014 9.14409e-015
rhumerus -48.7192 -12.4156 -63.4656
rradius 27.1825
rwrist 15.2896
rhand -7.02573 -12.7101
rfingers 7.12502
rthumb 18.8461 -41.8171
lclavicle 1.88845e-014 9.14409e-015
lhumerus -36.9687 6.91944 79.0468
lradius 37.7291
lwrist 2.16674
lhand -11.6947 28.2096
lfingers 7.12502
lthumb 14.3512 57.6936
rfemur -66.5897 2.75132 17.9805
rtibia 46.1499
rfoot -12.0016 -12.4113
rtoes -5.41863
lfemur -44.3757 -5.31241 -27.5348
ltibia 35.9516
lfoot -20.5545 7.41753
ltoes -18.9651
1767
root 3.31646 16.973 -0.175857 -146.908 2.82691 536.087
lowerback -19.2735 -3.74518 -3.02736
upperback -14.6682 -1.07642 1.20511
thorax -5.02799 1.27597 2.69878
lowerneck -11.5302 -7.16979 -2.88998
upperneck 48.5101 1.69621 -5.36371
head 22.2951 2.32947 -0.820476
rclavicle 2.59414e-014 -1.03368e-014
rhumerus -48.8496 -12.421 -63.2133
rradius 27.1955
rwrist 15.3625
rhand -7.06978 -12.6762
rfingers 7.12502
rthumb 18.8037 -41.7874
lclavicle 2.59414e-014 -1.03368e-014
lhumerus -36.7927 6.73654 79.1402
lradius 37.8936
lwrist 2.21455
lhand -11.5758 28.3373
lfingers 7.12502
lthumb 14.4657 57.8131
rfemur -66.4038 3.17766 17.2543
rtibia 43.2689
rfoot -11.9936 -13.0616
rtoes -4.92649
lfemur -43.5765 -5.26946 -27.622
ltibia 35.2766
lfoot -20.4899 7.40051
ltoes -19.3416
1768
root 3.32291 16.9914 -0.302693 -146.901 2.81076 536.038
lowerback -19.2978 -3.7859 -3.05412
upperback -14.6846 -1.11803 1.21978
thorax -5.0305 1.26167 2.72292
lowerneck -11.5892 -7.14863 -2.84565
upperneck 48.5303 1.71807 -5.3597
head 22.3359 2.34634 -0.822792
rclavicle -6.65929e-015 2.38542e-015
rhumerus -48.9879 -12.3869 -62.9916
rradius 27.2485
rwrist 15.3595
rhand -7.14823 -12.6665
rfingers 7.12502
rthumb 18.7283 -41.7849
lclavicle -6.65929e-015 2.38542e-015
lhumerus -36.6564 6.5678 79.2165
lradius 38.0701
lwrist 2.26825
lhand -11.4641 28.404
lfingers 7.12502
lthumb 14.5734 57.8721
rfemur -66.1704 3.60528 16.4748
rtibia 40.3998
rfoot -11.9711 -13.6946
rtoes -4.56246
lfemur -42.7254 -5.2458 -27.6984
ltibia 34.5236
lfoot -20.3908 7.37444
ltoes -19.6964
1769
root 3.33041 17.0115 -0.429845 -146.909 2.77695 535.985
lowerback -19.3083 -3.83207 -3.08546
upperback -14.7042 -1.1663 1.23502
thorax -5.04296 1.2448 2.74915
lowerneck -11.6437 -7.1306 -2.8115
upperneck 48.5502 1.73027 -5.34335
head 22.374 2.3591 -0.818373
rclavicle 1.12313e-014 -6.36111e-015
rhumerus -49.1482 -12.2987 -62.8115
rradius 27.3462
rwrist 15.2331
rhand -7.28791 -12.6856
rfingers 7.12502
rthumb 18.5939 -41.8169
lclavicle 1.12313e-014 -6.36111e-015
lhumerus -36.5544 6.39363 79.283
lradius 38.2442
lwrist 2.35441
lhand -11.4154 28.3732
lfingers 7.12502
lthumb 14.6203 57.8379
rfemur -65.9048 4.07528 15.6082
rtibia 37.5998
rfoot -11.9577 -14.3648
rtoes -4.32561
lfemur -41.8251 -5.22523 -27.7669
ltibia 33.6983
lfoot -20.2648 7.32271
ltoes -20.0153
1770
root 3.339 17.0327 -0.55766 -146.928 2.7264 535.93
lowerback -19.3267 -3.88077 -3.11699
upperback -14.7196 -1.21791 1.24845
thorax -5.04635 1.22577 2.77313
lowerneck -11.6908 -7.11335 -2.77329
upperneck 48.5646 1.74294 -5.33694
head 22.4045 2.37179 -0.819915
rclavicle 1.70458e-014 -8.34896e-015
rhumerus -49.3234 -12.1568 -62.6788
rradius 27.4945
rwrist 15.0075
rhand -7.44397 -12.7496
rfingers 7.12502
rthumb 18.4438 -41.8953
lclavicle 1.70458e-014 -8.34896e-015
lhumerus -36.4786 6.22276 79.3391
lradius 38.4218
lwrist 2.43607
lhand -11.3892 28.2907
lfingers 7.12502
lthumb 14.6455 57.7535
rfemur -65.6277 4.6492 14.5861
rtibia 34.9356
rfoot -11.9957 -15.1591
rtoes -4.21421
lfemur -40.8854 -5.21987 -27.823
ltibia 32.8196
lfoot -20.1181 7.25726
ltoes -20.2967
1771
root 3.3487 17.0539 -0.685949 -146.959 2.662 535.868
lowerback -19.3405 -3.93571 -3.15701
upperback -14.7346 -1.27689 1.26287
thorax -5.05066 1.20368 2.80185
lowerneck -11.7306 -7.0906 -2.73726
upperneck 48.5716 1.76131 -5.32835
head 22.4257 2.38617 -0.818554
rclavicle 3.77691e-015 2.0276e-014
rhumerus -49.4978 -12.0064 -62.5559
rradius 27.648
rwrist 14.7611
rhand -7.61543 -12.8212
rfingers 7.12502
rthumb 18.2788 -41.9824
lclavicle 3.77691e-015 2.0276e-014
lhumerus -36.4206 6.07033 79.3813
lradius 38.587
lwrist 2.515
lhand -11.3506 28.1872
lfingers 7.12502
lthumb 14.6828 57.6473
rfemur -65.3683 5.43657 13.2792
rtibia 32.4769
rfoot -12.1357 -16.2447
rtoes -4.14936
lfemur -39.9234 -5.23639 -27.8689
ltibia 31.9237
lfoot -19.9591 7.19381
ltoes -20.5658
1772
root 3.35947 17.0726 -0.814501 -147.004 2.57997 535.803
lowerback -19.3388 -3.9912 -3.194
upperback -14.7583 -1.3352 1.27367
thorax -5.07289 1.18305 2.82484
lowerneck -11.7477 -7.07059 -2.70122
upperneck 48.5776 1.78059 -5.32358
head 22.4373 2.40264 -0.818225
rclavicle 2.38542e-015 2.50469e-014
rhumerus -49.7008 -11.8101 -62.4656
rradius 27.8382
rwrist 14.4663
rhand -7.76889 -12.9312
rfingers 7.12502
rthumb 18.1312 -42.1061
lclavicle 2.38542e-015 2.50469e-014
lhumerus -36.3894 5.91532 79.4135
lradius 38.7247
lwrist 2.58688
lhand -11.3232 28.0602
lfingers 7.12502
lthumb 14.7091 57.5184
rfemur -65.1617 6.56203 11.5449
rtibia 30.2946
rfoot -12.4609 -17.8294
rtoes -3.94992
lfemur -38.9641 -5.2682 -27.9033
ltibia 31.0625
lfoot -19.8002 7.12793
ltoes -20.8526
1773
root 3.37133 17.0863 -0.943213 -147.063 2.48208 535.739
lowerback -19.3306 -4.03981 -3.21999
upperback -14.784 -1.38531 1.2775
thorax -5.10165 1.16584 2.83531
lowerneck -11.7483 -7.05482 -2.6745
upperneck 48.5776 1.79039 -5.31114
head 22.4363 2.41525 -0.813512
rclavicle 6.11263e-015 -3.97569e-016
rhumerus -49.9069 -11.6406 -62.3608
rradius 28.0077
rwrist 14.1905
rhand -7.90605 -13.0513
rfingers 7.12502
rthumb 17.9992 -42.2384
lclavicle 6.11263e-015 -3.97569e-016
lhumerus -36.3675 5.74514 79.4435
lradius 38.8436
lwrist 2.65397
lhand -11.2636 27.9699
lfingers 7.12502
lthumb 14.7666 57.4239
rfemur -65.0598 8.10273 9.29214
rtibia 28.449
rfoot -13.066 -20.0572
rtoes -3.46718
lfemur -38.0385 -5.31608 -27.9216
ltibia 30.2972
lfoot -19.6699 7.07687
ltoes -21.1595
1774
root 3.384 17.0927 -1.07254 -147.129 2.37475 535.678
lowerback -19.3129 -4.08206 -3.23495
upperback -14.8147 -1.42747 1.27618
thorax -5.14186 1.15243 2.83512
lowerneck -11.7402 -7.04405 -2.65229
upperneck 48.581 1.80153 -5.30416
head 22.4356 2.42874 -0.809982
rclavicle 1.03368e-014 9.93923e-015
rhumerus -50.1166 -11.4915 -62.2423
rradius 28.1606
rwrist 13.9377
rhand -8.02493 -13.1876
rfingers 7.12502
rthumb 17.8849 -42.3852
lclavicle 1.03368e-014 9.93923e-015
lhumerus -36.3564 5.58729 79.463
lradius 38.9344
lwrist 2.69356
lhand -11.1684 27.9159
lfingers 7.12502
lthumb 14.8582 57.3632
rfemur -65.1052 9.97243 6.62509
rtibia 26.9784
rfoot -14.0101 -22.8281
rtoes -2.71316
lfemur -37.1767 -5.37803 -27.9279
ltibia 29.6857
lfoot -19.5962 7.0561
ltoes -21.5087
1775
root 3.39719 17.0911 -1.20237 -147.207 2.26409 535.621
lowerback -19.2804 -4.1111 -3.23195
upperback -14.8514 -1.45392 1.26778
thorax -5.19824 1.14608 2.81947
lowerneck -11.7159 -7.04212 -2.64123
upperneck 48.5906 1.8135 -5.30284
head 22.4353 2.44271 -0.806186
rclavicle 6.41081e-015 -1.98785e-015
rhumerus -50.3291 -11.3822 -62.0914
rradius 28.276
rwrist 13.7232
rhand -8.13112 -13.3315
rfingers 7.12502
rthumb 17.7827 -42.5385
lclavicle 6.41081e-015 -1.98785e-015
lhumerus -36.3559 5.43581 79.4795
lradius 38.994
lwrist 2.71324
lhand -11.0621 27.8842
lfingers 7.12502
lthumb 14.9606 57.3238
rfemur -65.274 11.8872 3.92849
rtibia 25.8934
rfoot -15.259 -25.6961
rtoes -1.78565
lfemur -36.3935 -5.43983 -27.9265
ltibia 29.2689
lfoot -19.6017 7.06281
ltoes -21.9003
